<svg xmlns="http://www.w3.org/2000/svg" viewBox="-5 125 2031 415" role="img" aria-label="exhibitly.ai">
<path fill="#0000BF" opacity="1.000000" stroke="none"
	d="
M314.118042,374.039307
	C297.862366,396.990784 277.255157,414.836182 251.665604,426.645905
	C235.557358,434.079956 218.616776,437.817413 200.811462,439.258545
	C179.968582,440.945526 160.205841,437.369751 140.696564,430.983612
	C125.387756,425.972473 111.796753,417.759796 99.118927,406.971436
	C98.230507,403.660278 98.154617,400.566864 96.614014,398.651672
	C93.753922,395.096191 88.993698,392.780548 86.958298,388.927246
	C84.683823,384.621307 81.959480,383.722229 77.885063,384.042053
	C67.130493,371.011353 60.838989,355.754486 57.238338,339.550873
	C54.871998,328.901886 54.075169,317.867859 53.103210,306.959198
	C52.541405,300.653839 53.027401,294.255127 53.477512,287.410461
	C58.022182,286.332123 58.837128,283.348541 57.307446,280.466827
	C55.282429,276.652039 51.972122,277.673859 49.001385,279.833344
	C43.423557,275.461670 37.845730,271.089996 32.117569,265.969452
	C31.863892,257.080963 30.383915,255.913528 22.954691,258.111267
	C15.834095,251.244614 8.713499,244.377945 1.296452,237.755646
	C1.000000,237.250000 1.000000,236.500000 0.999998,235.375000
	C2.381004,234.451645 4.072717,234.240463 5.092784,233.300446
	C11.918698,227.010193 18.587505,220.549805 25.335329,214.174301
	C30.510967,209.284256 35.791115,204.503082 40.901604,199.546494
	C43.809174,196.726486 45.794540,198.227264 48.003952,200.460007
	C61.838558,214.440857 76.291603,227.718857 92.880127,238.427521
	C112.471519,251.074677 133.764404,258.870148 156.969177,262.204346
	C174.947220,264.787506 192.490906,264.710449 209.356567,257.820892
	C216.060226,255.082458 222.432602,250.875229 228.025330,246.219070
	C238.059082,237.865555 234.366119,221.353928 225.527679,214.676895
	C218.104126,209.068741 209.828812,206.995224 200.858429,205.909912
	C186.715775,204.198822 173.547073,207.320282 160.036041,212.555817
	C151.041595,209.005203 144.101791,214.159653 143.999207,223.833344
	C141.714859,226.011688 138.691803,227.803833 137.306946,230.452484
	C134.778763,235.287857 131.713882,234.524445 127.771004,232.931046
	C112.773819,226.870377 99.719582,217.840378 87.673866,207.198013
	C84.248260,204.171463 84.322594,201.640472 87.335258,197.979095
	C99.783569,182.850372 114.399254,170.373138 131.678741,161.216324
	C144.078323,154.645462 157.413437,150.064560 171.271408,148.251450
	C192.537323,145.469131 213.978302,145.286835 234.350311,153.194427
	C243.578232,156.776306 251.967377,162.519104 260.886353,168.018066
	C260.832428,172.280685 261.240143,175.385208 265.465851,176.453537
	C266.277466,176.658737 267.297974,177.628250 267.492401,178.423553
	C268.682220,183.290817 272.401367,183.061844 276.114899,182.957932
	C282.930756,190.638138 286.807678,199.862640 289.921997,209.461441
	C290.514862,211.288803 290.623962,213.273102 290.546906,215.674683
	C289.172577,217.961975 287.002808,220.336136 287.522949,221.422989
	C288.317169,223.082626 290.969757,223.852905 292.833344,225.000778
	C292.541870,231.379318 292.250366,237.757874 291.508667,244.583252
	C287.294250,244.928833 286.007843,247.197372 285.221710,250.506821
	C284.439270,253.800735 283.197296,257.022125 281.828827,260.130951
	C280.100891,264.056366 277.547302,267.684509 276.307343,271.734009
	C275.551178,274.203735 276.596924,277.225128 276.833344,279.998749
	C270.098816,286.576691 263.364319,293.154663 255.915390,299.666382
	C246.530655,298.126923 245.206024,299.066132 244.999222,306.833344
	C231.061066,314.077545 216.307739,318.893951 200.752060,320.924896
	C192.276062,322.031525 183.671875,323.102295 175.166229,322.844666
	C155.775131,322.257385 136.597610,319.646820 117.915016,314.089233
	C116.143082,313.562103 114.273483,313.363342 111.822853,312.891571
	C112.643173,316.552582 113.277046,319.381470 113.524124,322.687439
	C112.184288,325.008911 109.991867,327.575348 110.552620,328.537811
	C111.528557,330.213043 114.203087,330.898682 116.165527,331.999176
	C120.413971,339.142334 124.272453,346.556305 129.001328,353.365814
	C136.278351,363.844696 146.939178,370.102692 158.545929,374.733154
	C169.021225,378.912231 180.038086,381.105652 191.273560,380.904999
	C213.088257,380.515472 232.204041,372.987976 248.950089,358.757599
	C258.420502,350.709839 265.831055,341.315155 272.145630,330.164764
	C272.633453,329.535828 272.811768,329.354462 272.983582,329.166656
	C275.583160,329.458771 278.341003,329.289795 280.756317,330.118805
	C295.027466,335.016968 309.203705,340.190857 323.447601,345.169891
	C327.266174,346.504669 328.966522,348.271729 326.399780,352.273956
	C324.916748,354.586456 323.939880,357.223572 322.005676,359.878479
	C313.511444,360.680450 309.890045,367.761658 314.118042,374.039307
z"/>
<path fill="#0000BF" opacity="1.000000" stroke="none"
	d="
M1411.884888,390.041840
	C1409.588135,379.717407 1405.538696,369.433563 1405.298462,359.061462
	C1404.261841,314.322266 1404.340454,269.557220 1404.024170,224.801498
	C1404.019653,224.147324 1404.154907,223.492157 1404.269165,222.422913
	C1423.990356,222.422913 1443.680542,222.422913 1464.000000,222.422913
	C1464.000000,224.457962 1464.000000,226.401260 1464.000000,228.344574
	C1464.000000,260.995148 1463.962402,293.645844 1464.042480,326.296234
	C1464.053833,330.903900 1464.638794,335.510223 1464.613892,340.684509
	C1461.404053,343.197235 1462.240234,344.703125 1464.833496,346.000366
	C1466.252075,351.702057 1467.393188,357.493408 1469.196045,363.070953
	C1470.234741,366.284821 1472.343018,369.152985 1474.023682,372.928711
	C1474.061035,377.760620 1476.486938,379.046570 1480.114502,378.957703
	C1487.765015,384.067993 1496.576416,385.431763 1505.376709,385.796051
	C1525.417480,386.625702 1540.656494,375.199219 1544.763550,355.625122
	C1547.115723,344.414459 1548.613647,332.838898 1548.814087,321.398163
	C1549.356567,290.426147 1549.000000,259.438324 1549.000000,228.456787
	C1549.000000,226.503448 1549.000000,224.550095 1549.000000,222.301971
	C1569.115234,222.301971 1588.685913,222.301971 1608.958374,222.301971
	C1608.958374,285.960358 1608.958374,349.514984 1608.603027,413.672791
	C1605.244019,416.511414 1605.848022,418.377747 1608.833374,420.000366
	C1606.557373,434.737854 1604.281372,449.475311 1601.585205,464.697083
	C1599.777832,466.692505 1597.890747,467.982086 1597.102783,469.759033
	C1595.236450,473.967560 1593.718994,478.356293 1592.409546,482.775543
	C1591.758545,484.972107 1591.876099,487.396362 1591.645752,489.717560
	C1590.477661,491.281738 1589.309570,492.845947 1587.631592,494.736328
	C1583.911865,495.390442 1582.758179,496.960602 1584.111328,500.045319
	C1571.531616,517.456360 1553.439575,526.083008 1533.339355,530.787476
	C1524.279541,532.907837 1514.757202,533.148254 1505.420898,533.970459
	C1487.716553,535.529480 1470.327881,533.357971 1453.173828,529.001709
	C1435.143188,524.422791 1418.627075,516.727722 1403.718628,504.943695
	C1410.588135,488.622864 1417.391235,472.459473 1424.266968,456.123749
	C1428.947388,459.179199 1433.141968,462.433380 1437.774414,464.846924
	C1452.961914,472.759888 1468.860718,478.066101 1486.312012,478.080658
	C1499.947632,478.092041 1513.313110,477.749542 1525.812012,471.122284
	C1538.127808,464.592316 1544.827393,454.076874 1547.861938,441.052521
	C1549.338745,434.713684 1549.549316,428.079895 1550.498779,420.207550
	C1546.476318,423.006561 1543.613403,424.998596 1540.091675,426.923889
	C1536.411133,425.843201 1535.392578,427.528870 1535.042114,430.114868
	C1526.781128,433.020874 1518.725220,437.188568 1510.216675,438.571533
	C1492.235474,441.494171 1473.996460,441.573212 1456.466553,435.628571
	C1436.790161,428.956024 1422.884033,415.586853 1414.442261,396.118958
	C1416.835205,392.169861 1414.508423,391.032898 1411.884888,390.041840
z"/>
<path fill="#0000BF" opacity="1.000000" stroke="none"
	d="
M907.778625,436.997803
	C889.486755,436.999146 871.671997,436.999146 853.429321,436.999146
	C853.429321,341.036713 853.429321,245.364120 853.429321,149.345444
	C873.029907,149.345444 892.604370,149.345444 912.741455,149.345444
	C912.741455,179.878326 912.741455,210.435059 912.741455,241.908051
	C914.637085,240.873474 915.882996,240.468796 916.771118,239.667557
	C930.891052,226.928391 947.851746,221.237381 966.398254,218.916031
	C983.985474,216.714783 1000.843567,218.829483 1017.187378,225.586609
	C1033.163208,232.191559 1045.178223,243.348740 1053.944092,258.012421
	C1063.547241,274.076721 1068.669678,291.651154 1069.946045,310.272644
	C1070.625610,320.189575 1071.327637,330.180908 1070.864746,340.084686
	C1069.853394,361.725830 1064.986450,382.629486 1053.211060,401.014404
	C1038.610474,423.810272 1017.481873,436.518982 990.173584,439.145721
	C972.667969,440.829590 955.700500,439.836365 938.968384,434.155548
	C930.527039,431.289581 923.364502,426.572662 916.553406,421.079529
	C915.489807,420.221771 914.323059,419.492035 911.994751,417.850494
	C911.994751,423.956604 911.853577,428.688080 912.046692,433.405884
	C912.166260,436.328400 910.979919,437.340149 907.778625,436.997803
M913.000183,328.562134
	C913.674011,335.105255 913.743347,341.780914 915.142761,348.165009
	C918.452698,363.264862 926.615540,375.042419 941.093567,381.479401
	C950.278442,385.562988 960.095093,385.712921 969.999817,385.046906
	C982.615417,384.198608 992.788208,379.095642 1000.080078,368.665924
	C1006.268982,359.813904 1008.704712,349.752930 1010.223755,339.167603
	C1012.275574,324.869080 1010.581360,311.167358 1004.915161,298.103485
	C998.490417,283.290619 986.139282,275.906860 970.605713,274.137604
	C958.209900,272.725769 946.049805,274.611206 935.619751,282.023438
	C920.047668,293.090027 913.834778,309.080017 913.000183,328.562134
z"/>
<path fill="#0000BF" opacity="1.000000" stroke="none"
	d="
M546.021851,437.000000
	C541.896973,437.000000 538.267639,437.000000 534.325806,437.000000
	C534.325806,340.931213 534.325806,245.360748 534.325806,149.394958
	C554.264648,149.394958 574.175842,149.394958 594.910767,149.394958
	C594.910767,179.701004 594.910767,210.172089 594.910767,240.615646
	C601.969299,236.170868 608.243958,231.746567 614.946106,228.110092
	C625.034546,222.636230 636.136780,220.440552 647.458496,218.920273
	C663.529236,216.762299 678.940857,218.659607 693.890198,224.890137
	C705.590698,229.766586 714.259705,238.165878 721.100647,248.502487
	C730.194763,262.243591 734.480042,277.717072 735.954712,293.951477
	C736.970947,305.139069 737.827576,316.381805 737.909180,327.606049
	C738.158936,361.933319 737.999939,396.263611 737.999939,430.592712
	C737.999939,432.542358 737.999939,434.492035 737.999939,436.716553
	C717.507019,436.716553 697.596680,436.716553 677.000061,436.716553
	C677.000061,434.608856 677.000061,432.672852 677.000061,430.736847
	C677.000061,395.074554 677.059570,359.412140 676.966370,323.750092
	C676.935486,311.931244 674.993896,300.438416 668.973572,290.034241
	C663.188416,280.036682 654.486877,274.581482 642.832642,273.989410
	C633.287720,273.504547 624.026855,274.029114 615.758118,279.734680
	C603.762573,288.011841 598.455139,300.209808 596.138611,313.863098
	C595.012085,320.502625 595.067017,327.386993 595.045410,334.161987
	C594.943481,366.157715 595.000000,398.153961 595.000000,430.150024
	C595.000000,432.140900 595.000000,434.131775 595.000000,437.000000
	C578.668701,437.000000 562.593018,437.000000 546.021851,437.000000
z"/>
<path fill="#0000BF" opacity="1.000000" stroke="none"
	d="
M1905.434448,248.143188
	C1908.802734,253.780579 1912.849854,259.132782 1915.368652,265.127167
	C1918.553223,272.706451 1920.571533,280.785736 1922.892334,288.708099
	C1923.274536,290.012695 1922.420654,291.631775 1922.514160,293.081207
	C1922.621094,294.736664 1923.264282,296.351440 1923.457764,298.009216
	C1923.623535,299.429077 1923.461304,300.884979 1923.485107,302.324280
	C1923.505737,303.575623 1923.406982,304.864777 1923.670898,306.069305
	C1924.356445,309.197144 1925.885132,312.284882 1925.897827,315.393463
	C1926.054565,353.717987 1926.000000,392.043304 1926.000000,430.368439
	C1926.000000,432.338165 1926.000000,434.307861 1926.000000,436.637054
	C1907.670776,436.637054 1889.760498,436.637054 1871.500000,436.637054
	C1871.004761,430.255432 1870.500977,423.764771 1869.859497,415.498138
	C1866.998169,417.974426 1865.193726,419.423248 1863.519409,421.009308
	C1860.418213,423.947296 1857.672119,427.433472 1852.702515,427.067535
	C1852.120117,427.024658 1851.272461,427.309662 1850.931763,427.744019
	C1843.556030,437.142700 1832.338989,436.962769 1822.178223,438.809387
	C1815.076172,440.100098 1807.641602,440.170868 1800.388184,439.902588
	C1780.526123,439.167999 1762.411499,433.037933 1747.908325,419.157593
	C1737.648560,409.338318 1732.229492,396.823212 1730.825562,382.371490
	C1729.885132,372.690338 1730.529785,363.386230 1732.890625,354.070160
	C1737.652466,335.280273 1749.995483,323.248474 1767.396118,316.083191
	C1782.457764,309.881073 1798.333862,307.196350 1814.581543,307.035767
	C1832.170410,306.861908 1849.762329,306.996399 1867.708374,306.996399
	C1866.800659,295.762604 1864.339355,286.617950 1856.962402,279.491730
	C1851.275024,273.997620 1844.315552,271.386780 1836.475220,271.002136
	C1828.335449,270.602783 1820.320068,271.124359 1812.558716,273.942841
	C1811.449463,274.345673 1809.994141,273.767059 1808.859741,274.136322
	C1807.493164,274.581207 1806.021240,275.302368 1805.078369,276.342194
	C1801.428467,280.367340 1797.996582,284.589691 1794.398682,288.663544
	C1794.064575,289.041840 1793.131470,288.973419 1792.476318,288.973938
	C1773.838379,288.988831 1755.200317,288.985931 1736.200928,288.985931
	C1737.675293,273.934387 1742.921143,260.997437 1752.584717,249.928040
	C1769.154175,230.947662 1790.910034,222.686081 1815.240845,219.995544
	C1834.932129,217.818069 1854.461914,217.950043 1873.401245,224.973145
	C1884.023193,228.911957 1893.357178,234.735779 1901.026123,243.913132
	C1901.437500,247.161407 1901.617310,249.910202 1905.434448,248.143188
M1791.030762,362.956757
	C1791.020508,365.451447 1791.085083,367.949097 1790.986328,370.440277
	C1790.667603,378.467072 1794.398071,383.744812 1801.536011,387.233490
	C1819.513672,396.020203 1848.978638,388.950134 1860.629761,372.673462
	C1865.767578,365.496002 1869.351318,357.720306 1867.619141,348.463440
	C1866.892090,348.281525 1866.422119,348.054993 1865.956299,348.063263
	C1849.546997,348.355927 1833.136963,348.627441 1816.729248,349.000916
	C1808.847290,349.180298 1801.512329,351.218475 1794.368774,356.111145
	C1791.230713,356.959381 1787.572021,357.522369 1791.030762,362.956757
z"/>
<path fill="#0000BF" opacity="1.000000" stroke="none"
	d="
M487.047180,275.109161
	C481.419006,283.534729 475.790863,291.960297 469.644684,300.737488
	C467.932190,301.617554 466.284485,301.816284 465.619781,302.730103
	C462.299500,307.294586 459.116058,311.972839 456.177856,316.790039
	C455.526001,317.858734 456.059479,319.650391 456.047180,321.109161
	C450.456940,326.928406 453.252869,331.704926 457.385712,336.989746
	C463.525635,344.841095 469.021149,353.196381 474.820984,361.944122
	C474.085388,365.346344 474.333618,367.394897 478.047455,366.891022
	C482.767548,373.173920 487.625549,379.358643 492.180481,385.759094
	C503.416779,401.547943 514.520813,417.431000 525.649780,433.295959
	C526.286438,434.203552 526.671082,435.287872 527.378967,436.701050
	C526.334900,436.821350 525.586243,436.982391 524.837524,436.982941
	C503.517700,436.998169 482.197540,437.046021 460.878693,436.903778
	C459.222321,436.892731 456.884552,435.997437 456.026306,434.727386
	C441.770386,413.631012 427.700531,392.408936 413.185608,370.762390
	C411.577087,370.131409 409.766968,369.363770 409.269562,369.874542
	C406.851715,372.357269 404.418518,375.061401 406.111298,379.045288
	C401.129486,386.824280 396.147675,394.603271 390.646271,402.735718
	C388.932190,403.617584 387.284485,403.816315 386.619781,404.730072
	C383.299500,409.294617 380.116058,413.972839 377.177887,418.790070
	C376.526031,419.858734 377.059509,421.650391 377.047180,423.109192
	C374.428314,427.243378 371.874817,431.421875 369.132629,435.472626
	C368.614380,436.238190 367.347534,436.921936 366.423431,436.925385
	C344.796112,437.006073 323.168457,436.987885 300.552643,436.987885
	C304.873871,430.512909 308.680511,424.702820 312.592834,418.964783
	C331.099335,391.822235 349.610138,364.682556 368.172302,337.578094
	C375.227753,327.275757 375.359985,327.274506 368.718201,317.408386
	C351.470856,291.787933 334.185852,266.192657 316.849060,240.632675
	C313.250122,235.326675 309.340485,230.232025 305.638611,224.994339
	C305.218781,224.400345 305.219635,223.509033 304.830688,222.000153
	C307.048370,222.000153 308.795929,222.000137 310.543488,222.000137
	C330.202026,222.000137 349.862061,222.127838 369.517822,221.894104
	C373.528381,221.846436 375.831329,223.177582 377.864288,226.469254
	C389.850403,245.876541 401.992828,265.187256 414.535522,285.255127
	C415.840515,283.713715 417.069946,282.581665 417.916809,281.212952
	C429.323486,262.777466 440.718323,244.334259 451.999481,225.821899
	C453.719727,222.998978 455.674683,221.876389 459.094849,221.910767
	C478.751312,222.108353 498.410553,222.027878 518.405640,222.416473
	C517.844055,225.897232 516.945557,229.003220 516.047119,232.109222
	C510.419006,240.534760 504.790894,248.960297 498.644714,257.737488
	C492.542358,260.100433 486.418976,269.507080 487.047180,275.109161
z"/>
<path fill="#0000BF" opacity="1.000000" stroke="none"
	d="
M1164.000000,269.859100
	C1164.000000,253.889465 1164.000000,238.402222 1164.000000,222.223389
	C1174.251221,222.223389 1184.294189,222.223389 1194.828857,222.223389
	C1194.828857,202.963577 1194.828857,184.384705 1194.828857,165.405762
	C1215.026489,165.405762 1234.717407,165.405762 1254.920898,165.405762
	C1254.920898,184.130096 1254.920898,202.708954 1254.920898,221.792374
	C1270.330688,221.792374 1285.245117,221.792374 1300.576782,221.792374
	C1300.576782,239.990982 1300.576782,257.682770 1300.576782,275.889526
	C1285.568726,275.889526 1270.655396,275.889526 1255.000122,275.889526
	C1255.000122,278.151978 1255.000122,279.911682 1255.000122,281.671417
	C1255.000122,306.327606 1254.836792,330.985748 1255.129517,355.638458
	C1255.192627,360.952667 1256.779419,366.272430 1257.879639,371.544769
	C1259.308228,378.390625 1264.287842,381.373779 1270.672241,381.922638
	C1279.875854,382.713837 1289.122437,383.004639 1298.675537,383.526764
	C1298.675537,401.072235 1298.675537,418.646088 1298.675537,436.197174
	C1298.372681,436.419495 1298.116211,436.772247 1297.852173,436.778076
	C1277.994873,437.216034 1258.019409,438.324310 1238.630981,432.886902
	C1215.544922,426.412506 1201.025269,413.063477 1197.079102,388.092743
	C1195.822266,380.140503 1195.162354,372.019287 1195.091309,363.967834
	C1194.851807,336.814819 1195.000000,309.658417 1195.000000,282.503296
	C1195.000000,280.545563 1195.000000,278.587799 1195.000000,276.122009
	C1184.584351,276.122009 1174.666870,276.122009 1164.000122,276.122009
	C1164.000122,273.858490 1164.000122,272.100006 1164.000000,269.859100
z"/>
<path fill="#0000BF" opacity="1.000000" stroke="none"
	d="
M1374.000000,194.000000
	C1374.000000,275.093414 1374.000000,355.686798 1374.000000,436.639709
	C1354.002686,436.639709 1334.430176,436.639709 1314.427734,436.639709
	C1314.427734,341.044617 1314.427734,245.382965 1314.427734,149.360336
	C1333.997192,149.360336 1353.569824,149.360336 1374.000000,149.360336
	C1374.000000,164.022049 1374.000000,178.761017 1374.000000,194.000000
z"/>
<path fill="#0000BF" opacity="1.000000" stroke="none"
	d="
M2013.997803,226.221405
	C2013.999146,296.607391 2013.999146,366.516235 2013.999146,436.711731
	C1993.523315,436.711731 1973.619141,436.711731 1953.357056,436.711731
	C1953.357056,365.229706 1953.357056,293.895416 1953.357056,222.000000
	C1958.026245,222.000000 1962.479492,221.999786 1966.932617,222.000031
	C1981.257812,222.000809 1995.583252,222.056183 2009.907715,221.956116
	C2012.727905,221.936417 2014.485718,222.473251 2013.997803,226.221405
z"/>
<path fill="#0000BF" opacity="1.000000" stroke="none"
	d="
M770.140930,222.000137
	C788.561829,222.000046 806.500366,222.000046 824.716370,222.000046
	C824.716370,293.798401 824.716370,365.014008 824.716370,436.614990
	C804.721741,436.614990 784.817261,436.614990 764.455322,436.614990
	C764.455322,365.423615 764.455322,294.091248 764.455322,222.000229
	C766.141907,222.000229 767.900208,222.000229 770.140930,222.000137
z"/>
<path fill="#0000BF" opacity="1.000000" stroke="none"
	d="
M1151.000000,357.000000
	C1150.961304,383.480774 1150.923828,409.461548 1150.869385,435.442291
	C1150.868774,435.740509 1150.648071,436.038300 1150.399902,436.665894
	C1130.952148,436.665894 1111.381958,436.665894 1091.404907,436.665894
	C1091.404907,365.330078 1091.404907,293.999725 1091.404907,222.334320
	C1111.048462,222.334320 1130.618774,222.334320 1151.000000,222.334320
	C1151.000000,267.057007 1151.000000,311.778503 1151.000000,357.000000
z"/>
<path fill="#0000BF" opacity="1.000000" stroke="none"
	d="
M775.098389,136.982422
	C797.641174,124.821114 823.892578,135.760132 830.211853,157.660309
	C836.870056,180.735550 822.784912,204.960236 795.767883,205.028641
	C782.471252,205.062317 770.872620,201.423203 763.417603,189.700699
	C760.852112,185.666626 758.765442,180.800949 758.214111,176.109039
	C756.341370,160.172394 759.882996,146.125198 775.098389,136.982422
z"/>
<path fill="#0000BF" opacity="1.000000" stroke="none"
	d="
M1133.897583,203.088562
	C1122.977295,206.859192 1112.105225,205.949539 1102.676025,201.408737
	C1091.382812,195.970230 1084.683472,185.887650 1083.990845,172.688934
	C1083.503540,163.402115 1084.894897,154.682129 1090.540649,146.901337
	C1098.917847,135.356277 1110.696777,131.370804 1124.205811,132.105438
	C1139.423340,132.933014 1152.755615,144.447800 1156.355347,156.810959
	C1161.814087,175.557709 1154.442261,196.202545 1133.897583,203.088562
z"/>
<path fill="#0000BF" opacity="1.000000" stroke="none"
	d="
M2017.354004,184.210587
	C2009.235962,204.325821 1984.211792,209.104340 1967.180298,202.049759
	C1947.607300,193.942490 1942.118652,171.877594 1948.978516,154.318130
	C1956.522461,135.007843 1979.722046,125.992630 1999.918091,135.673615
	C2019.241455,144.936249 2024.207397,162.821289 2017.354004,184.210587
z"/>
<path fill="#0000BF" opacity="1.000000" stroke="none"
	d="
M1709.833374,401.000427
	C1710.850098,412.826172 1708.756592,423.858093 1699.945679,432.387390
	C1693.673462,438.459320 1686.003418,442.455444 1676.906128,441.923767
	C1670.717896,441.562103 1664.571777,440.479553 1658.181396,438.992981
	C1657.346558,431.631134 1654.562988,430.347473 1648.961060,434.118469
	C1635.944336,423.058044 1635.207642,408.899200 1638.718140,393.647095
	C1644.298462,369.402069 1675.444580,360.988525 1693.921875,373.796082
	C1699.235352,377.479126 1702.828003,382.057678 1705.767090,387.842255
	C1701.291260,393.781555 1703.322388,399.755920 1709.833374,401.000427
z"/>
<path fill="#0000BF" opacity="1.000000" stroke="none"
	d="
M77.945663,384.391052
	C81.959480,383.722229 84.683823,384.621307 86.958298,388.927246
	C88.993698,392.780548 93.753922,395.096191 96.614014,398.651672
	C98.154617,400.566864 98.230507,403.660278 98.962471,406.668365
	C91.973869,399.656433 84.990059,392.198212 77.945663,384.391052
z"/>
<path fill="#0000BF" opacity="1.000000" stroke="none"
	d="
M276.953674,279.741455
	C276.596924,277.225128 275.551178,274.203735 276.307343,271.734009
	C277.547302,267.684509 280.100891,264.056366 281.828827,260.130951
	C283.197296,257.022125 284.439270,253.800735 285.221710,250.506821
	C286.007843,247.197372 287.294250,244.928833 291.445923,245.014832
	C291.767731,245.579193 291.702118,246.158813 291.066895,247.040512
	C287.152832,249.784348 286.251465,252.614883 289.112610,256.044159
	C288.795166,257.151672 288.477722,258.259186 287.645905,259.774689
	C282.808014,261.564484 283.109131,264.765839 283.980408,268.191528
	C283.980408,268.191528 283.972076,268.049500 283.663330,268.157959
	C279.540710,270.444733 277.164062,273.398071 278.047180,278.109161
	C277.722809,278.567505 277.398407,279.025848 276.953674,279.741455
z"/>
<path fill="#0000BF" opacity="1.000000" stroke="none"
	d="
M1591.802002,489.395996
	C1591.876099,487.396362 1591.758545,484.972107 1592.409546,482.775543
	C1593.718994,478.356293 1595.236450,473.967560 1597.102783,469.759033
	C1597.890747,467.982086 1599.777832,466.692505 1601.499268,465.090332
	C1598.541626,473.024323 1595.249878,481.049347 1591.802002,489.395996
z"/>
<path fill="#0000BF" opacity="1.000000" stroke="none"
	d="
M377.353577,422.948792
	C377.059509,421.650391 376.526031,419.858734 377.177887,418.790070
	C380.116058,413.972839 383.299500,409.294617 386.619781,404.730072
	C387.284485,403.816315 388.932190,403.617584 390.479980,403.044220
	C386.442200,409.595673 382.051056,416.192047 377.353577,422.948792
z"/>
<path fill="#0000BF" opacity="1.000000" stroke="none"
	d="
M456.353577,320.948792
	C456.059479,319.650391 455.526001,317.858734 456.177856,316.790039
	C459.116058,311.972839 462.299500,307.294586 465.619781,302.730103
	C466.284485,301.816284 467.932190,301.617554 469.479980,301.044189
	C465.442230,307.595673 461.051086,314.192078 456.353577,320.948792
z"/>
<path fill="#0000BF" opacity="1.000000" stroke="none"
	d="
M276.046387,182.603760
	C272.401367,183.061844 268.682220,183.290817 267.492401,178.423553
	C267.297974,177.628250 266.277466,176.658737 265.465851,176.453537
	C261.240143,175.385208 260.832428,172.280685 261.038818,168.319748
	C264.167786,171.195908 267.217316,174.583862 270.450836,177.785995
	C272.124908,179.443817 274.125061,180.772308 276.046387,182.603760
z"/>
<path fill="#0000BF" opacity="1.000000" stroke="none"
	d="
M487.353577,274.948792
	C486.418976,269.507080 492.542358,260.100433 498.479980,258.044189
	C495.108887,263.595673 491.384430,269.192078 487.353577,274.948792
z"/>
<path fill="#0000BF" opacity="1.000000" stroke="none"
	d="
M49.321697,280.010406
	C51.972122,277.673859 55.282429,276.652039 57.307446,280.466827
	C58.837128,283.348541 58.022182,286.332123 53.539940,286.961487
	C53.513172,283.942383 52.424759,281.626648 49.321697,280.010406
z"/>
<path fill="#0000BF" opacity="1.000000" stroke="none"
	d="
M144.283142,223.815643
	C144.101791,214.159653 151.041595,209.005203 159.675934,212.619156
	C159.179352,213.476669 158.392899,214.119980 157.088379,214.594666
	C152.299088,213.649338 147.256760,217.331711 146.042404,222.114487
	C145.550629,222.675644 145.058853,223.236801 144.283142,223.815643
z"/>
<path fill="#0000BF" opacity="1.000000" stroke="none"
	d="
M23.105312,258.411255
	C30.383915,255.913528 31.863892,257.080963 31.962454,265.667603
	C29.057095,263.646820 26.156515,261.179047 23.105312,258.411255
z"/>
<path fill="#0000BF" opacity="1.000000" stroke="none"
	d="
M314.377380,373.893066
	C309.890045,367.761658 313.511444,360.680450 321.695618,360.042175
	C321.955078,360.610657 321.795135,361.179382 321.029633,361.974487
	C316.394623,364.263458 313.907135,367.158234 315.111298,372.045288
	C314.953094,372.612457 314.794891,373.179657 314.377380,373.893066
z"/>
<path fill="#0000BF" opacity="1.000000" stroke="none"
	d="
M245.338776,306.765259
	C245.206024,299.066132 246.530655,298.126923 255.580109,299.716736
	C252.763718,302.467926 247.580521,302.125336 245.338776,306.765259
z"/>
<path fill="#0000BF" opacity="1.000000" stroke="none"
	d="
M1649.147949,434.399567
	C1654.562988,430.347473 1657.346558,431.631134 1657.957031,438.690735
	C1657.199951,438.520782 1656.441895,437.926697 1655.092041,437.185455
	C1654.295288,437.039734 1654.090454,437.041138 1653.885498,437.042572
	C1653.885498,437.042572 1653.434570,436.970520 1653.206543,436.665039
	C1652.978638,436.359589 1652.957153,435.885773 1652.957153,435.885742
	C1651.749756,435.484039 1650.542236,435.082367 1649.147949,434.399567
z"/>
<path fill="#0000BF" opacity="1.000000" stroke="none"
	d="
M406.412537,378.890991
	C404.418518,375.061401 406.851715,372.357269 409.269562,369.874542
	C409.766968,369.363770 411.577087,370.131409 412.890564,370.571594
	C410.903931,373.467804 408.808868,376.102234 406.412537,378.890991
z"/>
<path fill="#0000BF" opacity="1.000000" stroke="none"
	d="
M116.086029,331.645844
	C114.203087,330.898682 111.528557,330.213043 110.552620,328.537811
	C109.991867,327.575348 112.184288,325.008911 113.485336,323.082031
	C112.020851,326.428650 114.229111,328.804138 116.086029,331.645844
z"/>
<path fill="#0000BF" opacity="1.000000" stroke="none"
	d="
M292.774353,224.661224
	C290.969757,223.852905 288.317169,223.082626 287.522949,221.422989
	C287.002808,220.336136 289.172577,217.961975 290.485443,216.081970
	C290.295898,219.037018 290.405762,221.928070 292.774353,224.661224
z"/>
<path fill="#0000BF" opacity="1.000000" stroke="none"
	d="
M1709.885010,400.703400
	C1703.322388,399.755920 1701.291260,393.781555 1705.826416,388.158600
	C1706.413330,388.428467 1706.708984,388.896484 1706.836914,389.905945
	C1704.612671,394.109650 1705.542847,396.913513 1709.115112,398.958160
	C1709.388916,399.440887 1709.662842,399.923615 1709.885010,400.703400
z"/>
<path fill="#0000BF" opacity="1.000000" stroke="none"
	d="
M146.348145,221.956879
	C147.256760,217.331711 152.299088,213.649338 156.784119,214.629684
	C153.549881,217.155334 150.101883,219.477310 146.348145,221.956879
z"/>
<path fill="#0000BF" opacity="1.000000" stroke="none"
	d="
M516.353271,231.949127
	C516.945557,229.003220 517.844055,225.897232 518.870605,222.478928
	C520.130859,222.166611 521.263123,222.166611 523.121643,222.166611
	C520.762024,225.680115 518.710693,228.734573 516.353271,231.949127
z"/>
<path fill="#0000BF" opacity="1.000000" stroke="none"
	d="
M315.415588,371.887817
	C313.907135,367.158234 316.394623,364.263458 320.769562,362.121399
	C319.316650,365.271393 317.518250,368.500885 315.415588,371.887817
z"/>
<path fill="#0000BF" opacity="1.000000" stroke="none"
	d="
M278.353516,277.948853
	C277.164062,273.398071 279.540710,270.444733 283.734375,268.153809
	C282.296051,271.290344 280.477966,274.539429 278.353516,277.948853
z"/>
<path fill="#0000BF" opacity="1.000000" stroke="none"
	d="
M289.418945,255.809204
	C286.251465,252.614883 287.152832,249.784348 290.806366,247.192108
	C290.652008,249.885803 290.188629,252.730026 289.418945,255.809204
z"/>
<path fill="#0000BF" opacity="1.000000" stroke="none"
	d="
M1709.071777,398.551453
	C1705.542847,396.913513 1704.612671,394.109650 1706.887695,390.198700
	C1707.746948,392.681610 1708.387695,395.413177 1709.071777,398.551453
z"/>
<path fill="#0000BF" opacity="1.000000" stroke="none"
	d="
M284.276978,267.995972
	C283.109131,264.765839 282.808014,261.564484 287.482422,260.091003
	C286.746735,262.599670 285.660126,265.200073 284.276978,267.995972
z"/>
<path fill="#0000BF" opacity="1.000000" stroke="none"
	d="
M1479.964722,378.660828
	C1476.486938,379.046570 1474.061035,377.760620 1474.059814,373.283020
	C1475.966431,374.711578 1477.890747,376.537781 1479.964722,378.660828
z"/>
<path fill="#0000BF" opacity="1.000000" stroke="none"
	d="
M1411.931152,390.404480
	C1414.508423,391.032898 1416.835205,392.169861 1414.380127,395.775146
	C1413.436890,394.254303 1412.707153,392.510712 1411.931152,390.404480
z"/>
<path fill="#0000BF" opacity="1.000000" stroke="none"
	d="
M1608.895752,419.575043
	C1605.848022,418.377747 1605.244019,416.511414 1608.540527,414.137787
	C1608.874878,415.716339 1608.916504,417.433044 1608.895752,419.575043
z"/>
<path fill="#0000BF" opacity="1.000000" stroke="none"
	d="
M1584.402954,499.901062
	C1582.758179,496.960602 1583.911865,495.390442 1587.477539,495.030884
	C1586.787109,496.585114 1585.740845,498.170959 1584.402954,499.901062
z"/>
<path fill="#0000BF" opacity="1.000000" stroke="none"
	d="
M478.013489,366.557922
	C474.333618,367.394897 474.085388,365.346344 474.977661,362.249695
	C476.062714,363.373840 477.021118,364.799347 478.013489,366.557922
z"/>
<path fill="#0000BF" opacity="1.000000" stroke="none"
	d="
M1905.256348,247.899323
	C1901.617310,249.910202 1901.437500,247.161407 1901.060547,244.260056
	C1902.387573,245.142029 1903.733032,246.398743 1905.256348,247.899323
z"/>
<path fill="#0000BF" opacity="1.000000" stroke="none"
	d="
M1535.379639,430.057129
	C1535.392578,427.528870 1536.411133,425.843201 1539.742188,426.980652
	C1538.606934,428.069244 1537.161987,429.034302 1535.379639,430.057129
z"/>
<path fill="#0000BF" opacity="1.000000" stroke="none"
	d="
M1464.895752,345.586670
	C1462.240234,344.703125 1461.404053,343.197235 1464.551514,341.125732
	C1464.875000,342.390747 1464.916504,343.781860 1464.895752,345.586670
z"/>
<path fill="#0000BF" opacity="1.000000" stroke="none"
	d="
M1652.749146,435.984253
	C1652.957153,435.885773 1652.978638,436.359589 1652.988770,436.596527
	C1652.846436,436.583221 1652.693726,436.332977 1652.749146,435.984253
z"/>
<path fill="#0000BF" opacity="1.000000" stroke="none"
	d="
M1653.992676,437.261536
	C1654.090454,437.041138 1654.295288,437.039734 1654.807617,437.040161
	C1654.776489,437.188171 1654.438110,437.334320 1653.992676,437.261536
z"/>
<path fill="#0000BF" opacity="1.000000" stroke="none"
	d="
M272.746094,329.164093
	C272.811768,329.354462 272.633453,329.535828 272.307617,329.839355
	C272.055054,329.603516 272.169067,329.334686 272.746094,329.164093
z"/>
<path fill="#0000BF" opacity="1.000000" stroke="none"
	d="
M1794.741699,356.076721
	C1793.971558,357.920959 1792.828613,359.799622 1791.404175,361.856873
	C1787.572021,357.522369 1791.230713,356.959381 1794.741699,356.076721
z"/>
</svg>
