<svg xmlns="http://www.w3.org/2000/svg" viewBox="0 0 188.667 58.667"><title>EXR</title><path d="M36.824 4.658A10.667 10.667 0 0 1 45.637 0H60L21.853 54.144a10.667 10.667 0 0 1-8.72 4.523H0L36.824 4.658ZM18.667 0l6 8.516-9.333 13.247L0 0h18.667ZM44.415 36.546l-9.18 13.465 6.098 8.656H60l-15.585-22.12ZM114.163 48.333v-7.007H94.939v-8.831h18.816v-6.951H94.939v-8.261h19.224v-6.951H86.667v38h27.496ZM154.707 48.333 140.61 28.792l13.223-18.459h-9.961l-8.796 12.99-8.913-12.99h-9.845l13.224 18.516-14.097 19.484h9.844l9.787-13.901 9.728 13.901h9.903ZM188.667 48.333l-8.738-14.471c4.194-.969 8.505-4.558 8.505-11.28 0-7.064-4.952-12.249-13.049-12.249H157.21v38h8.272V34.717h6.059l7.631 13.616h9.495Zm-8.68-25.808c0 3.19-2.505 5.241-5.825 5.241h-8.68V17.283h8.68c3.32 0 5.825 2.051 5.825 5.241Z" fill="#1A1A1A"></path></svg>