<?xml version="1.0" encoding="UTF-8"?>
<!DOCTYPE svg PUBLIC "-//W3C//DTD SVG 1.1//EN" "http://www.w3.org/Graphics/SVG/1.1/DTD/svg11.dtd">
<svg xmlns="http://www.w3.org/2000/svg" version="1.1" width="8272px" height="2305px" style="shape-rendering:geometricPrecision; text-rendering:geometricPrecision; image-rendering:optimizeQuality; fill-rule:evenodd; clip-rule:evenodd" xmlns:xlink="http://www.w3.org/1999/xlink">
<g><path style="opacity:1" fill="#000000" d="M 1214.5,427.5 C 1249.83,427.5 1285.17,427.5 1320.5,427.5C 1313.47,600.849 1357.3,759.849 1452,904.5C 1470.59,931.098 1492.09,955.264 1516.5,977C 1581.07,1028.82 1635.23,1019.65 1679,949.5C 1698.27,914.347 1711.61,877.014 1719,837.5C 1729.57,780.657 1734.4,723.324 1733.5,665.5C 1768.5,665.5 1803.5,665.5 1838.5,665.5C 1832.06,759.46 1849.89,848.46 1892,932.5C 1912,971.639 1939.83,1004.14 1975.5,1030C 2013.19,1054.59 2054.52,1064.42 2099.5,1059.5C 2099.5,1093.5 2099.5,1127.5 2099.5,1161.5C 2043.36,1156.05 1994.36,1171.88 1952.5,1209C 1919.78,1240.58 1894.62,1277.41 1877,1319.5C 1856.18,1368.76 1843.85,1420.1 1840,1473.5C 1838.67,1501.15 1838.17,1528.82 1838.5,1556.5C 1803.5,1556.67 1768.5,1556.5 1733.5,1556C 1735.04,1551.86 1735.71,1547.52 1735.5,1543C 1731.68,1487.24 1725.51,1431.74 1717,1376.5C 1709.97,1340.4 1697.97,1306.07 1681,1273.5C 1667.34,1248.17 1647.5,1229.34 1621.5,1217C 1597.99,1208.74 1574.99,1210.07 1552.5,1221C 1527.46,1234.69 1505.29,1252.19 1486,1273.5C 1452.77,1312.92 1424.77,1355.92 1402,1402.5C 1356.13,1496.31 1329.13,1595.31 1321,1699.5C 1320.5,1730.83 1320.33,1762.16 1320.5,1793.5C 1285.17,1793.5 1249.83,1793.5 1214.5,1793.5C 1220.85,1629.89 1181.68,1478.23 1097,1338.5C 1074.93,1302.76 1048.1,1270.92 1016.5,1243C 1003.79,1232.64 989.787,1224.31 974.5,1218C 945.252,1206.27 918.252,1209.93 893.5,1229C 873.866,1246.75 859.033,1267.92 849,1292.5C 825.822,1350.71 811.155,1411.05 805,1473.5C 802.316,1501.1 800.816,1528.77 800.5,1556.5C 765.833,1556.5 731.167,1556.5 696.5,1556.5C 698.396,1505.71 694.562,1455.38 685,1405.5C 672.588,1347.7 649.588,1294.7 616,1246.5C 592.03,1213.86 561.53,1189.36 524.5,1173C 495.384,1162.68 465.384,1158.85 434.5,1161.5C 434.5,1127.5 434.5,1093.5 434.5,1059.5C 490.545,1065.54 539.545,1050.04 581.5,1013C 616.235,980.057 642.402,941.224 660,896.5C 682.75,840.753 694.75,782.753 696,722.5C 696.5,703.503 696.667,684.503 696.5,665.5C 731.167,665.5 765.833,665.5 800.5,665.5C 799.749,722.49 803.583,779.157 812,835.5C 817.887,874.402 830.22,911.069 849,945.5C 864.513,972.349 886.346,992.182 914.5,1005C 934.255,1012.33 953.921,1011.99 973.5,1004C 989.959,997.277 1004.96,988.277 1018.5,977C 1045,953.843 1067.84,927.676 1087,898.5C 1178.84,755.109 1221.34,598.109 1214.5,427.5 Z"/></g>
<g><path style="opacity:1" fill="#000000" d="M 3622.5,589.5 C 3663.5,584.935 3696.66,598.602 3722,630.5C 3739.45,659.209 3742.78,689.542 3732,721.5C 3717.85,751.976 3694.35,771.143 3661.5,779C 3617.15,787.556 3580.98,774.389 3553,739.5C 3538.43,716.061 3533.76,690.728 3539,663.5C 3547.84,630.317 3568.34,607.483 3600.5,595C 3607.89,592.82 3615.22,590.987 3622.5,589.5 Z"/></g>
<g><path style="opacity:1" fill="#000000" d="M 5895.5,589.5 C 5936.37,585.161 5969.53,598.828 5995,630.5C 6015.58,664.898 6016.58,699.898 5998,735.5C 5972.03,771.552 5936.87,786.386 5892.5,780C 5847.04,771.54 5819.87,744.707 5811,699.5C 5806.08,649.151 5826.92,614.317 5873.5,595C 5880.89,592.82 5888.22,590.987 5895.5,589.5 Z"/></g>
<g><path style="opacity:1" fill="#000000" d="M 2604.5,667.5 C 2750.17,667.333 2895.83,667.5 3041.5,668C 3087.21,668.116 3132.21,673.783 3176.5,685C 3225.04,697.508 3267.2,721.008 3303,755.5C 3342.03,799.589 3359.36,851.255 3355,910.5C 3347.98,981.116 3314.48,1034.95 3254.5,1072C 3226.84,1088.99 3197.18,1101.32 3165.5,1109C 3159.47,1113.71 3159.14,1118.71 3164.5,1124C 3199.87,1134.26 3230.04,1152.76 3255,1179.5C 3275.74,1205.99 3290.41,1235.66 3299,1268.5C 3315.85,1338.22 3332.85,1407.89 3350,1477.5C 3352.73,1480.71 3356.23,1482.21 3360.5,1482C 3389.53,1485.11 3418.53,1488.45 3447.5,1492C 3449.38,1493.54 3450.88,1495.38 3452,1497.5C 3452.67,1515.83 3452.67,1534.17 3452,1552.5C 3451.04,1553.58 3450.21,1554.75 3449.5,1556C 3390.65,1572.75 3330.98,1576.42 3270.5,1567C 3246.99,1562.91 3225.66,1553.91 3206.5,1540C 3189.51,1524.2 3178.01,1505.04 3172,1482.5C 3155.21,1405.53 3138.54,1328.53 3122,1251.5C 3105.69,1184.2 3062.85,1149.7 2993.5,1148C 2958.17,1147.33 2922.83,1147.33 2887.5,1148C 2885,1149.17 2883.17,1151 2882,1153.5C 2880.99,1259.84 2881.66,1366.18 2884,1472.5C 2885.1,1478.26 2888.6,1481.09 2894.5,1481C 2927.97,1484.27 2961.3,1488.27 2994.5,1493C 2996.05,1494.21 2997.22,1495.71 2998,1497.5C 2998.97,1515.92 2998.64,1534.26 2997,1552.5C 2995.2,1554.32 2993.03,1555.48 2990.5,1556C 2861.83,1556.67 2733.17,1556.67 2604.5,1556C 2600.98,1555.5 2598.48,1553.66 2597,1550.5C 2596.33,1532.83 2596.33,1515.17 2597,1497.5C 2597.78,1495.71 2598.95,1494.21 2600.5,1493C 2635.08,1488.27 2669.74,1483.94 2704.5,1480C 2706.38,1478.46 2707.88,1476.62 2709,1474.5C 2709.33,1464.5 2709.67,1454.5 2710,1444.5C 2710.97,1212.83 2710.64,981.16 2709,749.5C 2707.17,745.33 2704,743.164 2699.5,743C 2669.16,739.733 2638.83,736.399 2608.5,733C 2603.22,733.281 2599.39,731.114 2597,726.5C 2596.33,708.833 2596.33,691.167 2597,673.5C 2598.71,670.41 2601.21,668.41 2604.5,667.5 Z M 2889.5,737.5 C 2934.83,737.333 2980.17,737.5 3025.5,738C 3130.23,743.564 3183.57,798.731 3185.5,903.5C 3185.51,937.458 3177.68,969.458 3162,999.5C 3139.29,1035.85 3107.12,1059.68 3065.5,1071C 3048.43,1075.34 3031.09,1078.01 3013.5,1079C 2971.5,1079.67 2929.5,1079.67 2887.5,1079C 2885.71,1078.22 2884.21,1077.05 2883,1075.5C 2881,965.903 2881.33,856.236 2884,746.5C 2884.34,742.47 2886.17,739.47 2889.5,737.5 Z"/></g>
<g><path style="opacity:1" fill="#000000" d="M 5474.5,730.5 C 5497.21,730.065 5519.87,730.565 5542.5,732C 5555.45,737.064 5562.12,746.564 5562.5,760.5C 5560.33,805.143 5559.17,849.809 5559,894.5C 5562.71,905.54 5570.21,912.373 5581.5,915C 5620.17,915.333 5658.83,915.667 5697.5,916C 5710.44,919.609 5717.61,928.109 5719,941.5C 5719.67,951.167 5719.67,960.833 5719,970.5C 5717.37,982.122 5711.21,990.289 5700.5,995C 5659.88,996.311 5619.21,996.977 5578.5,997C 5567.32,1000.18 5560.16,1007.34 5557,1018.5C 5556.33,1148.5 5556.33,1278.5 5557,1408.5C 5561.27,1466.8 5592.1,1491.63 5649.5,1483C 5664.73,1478.22 5679.06,1471.55 5692.5,1463C 5715.34,1457.19 5728.67,1465.85 5732.5,1489C 5732.07,1495.28 5730.24,1501.11 5727,1506.5C 5696.11,1543.54 5656.61,1565.37 5608.5,1572C 5568.56,1578 5529.23,1575.34 5490.5,1564C 5441.81,1547.65 5411.65,1514.48 5400,1464.5C 5395.56,1443.57 5393.4,1422.4 5393.5,1401C 5394.22,1376.84 5394.72,1352.67 5395,1328.5C 5395.67,1225.83 5395.67,1123.17 5395,1020.5C 5393.2,1009.4 5387.03,1001.9 5376.5,998C 5356.17,997 5335.83,996 5315.5,995C 5305.42,991.249 5299.25,984.082 5297,973.5C 5296.33,964.833 5296.33,956.167 5297,947.5C 5299.17,937.334 5305,930.168 5314.5,926C 5366.8,919.135 5403.3,891.635 5424,843.5C 5433.2,811.558 5442.2,779.558 5451,747.5C 5455.98,737.772 5463.81,732.105 5474.5,730.5 Z"/></g>
<g><path style="opacity:1" fill="#000000" d="M 4308.5,896.5 C 4410.66,891.859 4473.16,939.193 4496,1038.5C 4500.14,1058.3 4502.81,1078.3 4504,1098.5C 4505.27,1195.16 4505.94,1291.82 4506,1388.5C 4506.1,1418.19 4506.77,1447.85 4508,1477.5C 4509.08,1480.91 4511.24,1483.41 4514.5,1485C 4537.94,1489.62 4561.27,1494.62 4584.5,1500C 4586.38,1501.54 4587.88,1503.38 4589,1505.5C 4589.95,1520.9 4589.62,1536.23 4588,1551.5C 4586.05,1553.89 4583.55,1555.39 4580.5,1556C 4476.5,1556.67 4372.5,1556.67 4268.5,1556C 4265.45,1555.39 4262.95,1553.89 4261,1551.5C 4259.37,1535.93 4259.03,1520.26 4260,1504.5C 4262.41,1500.7 4265.91,1498.54 4270.5,1498C 4293.83,1493.33 4317.17,1488.67 4340.5,1484C 4342.4,1483.8 4343.9,1482.97 4345,1481.5C 4346.97,1367.84 4347.63,1254.17 4347,1140.5C 4347.3,1112.84 4343.3,1085.84 4335,1059.5C 4324.76,1032.95 4305.59,1017.12 4277.5,1012C 4243.51,1007.14 4210.84,1011.81 4179.5,1026C 4151.68,1038.65 4126.52,1055.15 4104,1075.5C 4101.99,1209.45 4102.33,1343.45 4105,1477.5C 4105.98,1480.63 4107.81,1483.13 4110.5,1485C 4131.14,1489.46 4151.81,1493.79 4172.5,1498C 4177.09,1498.54 4180.59,1500.7 4183,1504.5C 4183.97,1520.26 4183.63,1535.93 4182,1551.5C 4180.36,1553.81 4178.2,1555.31 4175.5,1556C 4070.83,1556.67 3966.17,1556.67 3861.5,1556C 3857.64,1554.81 3855.14,1552.31 3854,1548.5C 3853.33,1534.17 3853.33,1519.83 3854,1505.5C 3855.12,1503.38 3856.62,1501.54 3858.5,1500C 3884.14,1494.54 3909.81,1489.21 3935.5,1484C 3937.38,1482.46 3938.88,1480.62 3940,1478.5C 3941.19,1446.85 3941.85,1415.18 3942,1383.5C 3942.67,1301.17 3942.67,1218.83 3942,1136.5C 3941.64,1107.08 3940.31,1077.75 3938,1048.5C 3935.41,1044.95 3931.91,1043.12 3927.5,1043C 3903.84,1039.92 3880.18,1036.92 3856.5,1034C 3851.5,1033.75 3847.66,1031.59 3845,1027.5C 3844.33,1013.17 3844.33,998.833 3845,984.5C 3847.89,980.633 3851.72,978.133 3856.5,977C 3926.41,950.199 3996.41,923.699 4066.5,897.5C 4075.49,900.328 4082.99,905.328 4089,912.5C 4091.57,938.143 4093.91,963.81 4096,989.5C 4099.13,997.765 4104.63,999.932 4112.5,996C 4166.03,939.734 4231.37,906.567 4308.5,896.5 Z"/></g>
<g><path style="opacity:1" fill="#000000" d="M 4878.5,896.5 C 4917.65,894.863 4956.31,898.363 4994.5,907C 5026.04,914.438 5054.7,927.772 5080.5,947C 5084.31,949.489 5088.48,950.989 5093,951.5C 5097.28,950.723 5101.44,949.556 5105.5,948C 5146.83,931.667 5188.17,915.333 5229.5,899C 5245.74,895.362 5255.9,901.529 5260,917.5C 5260.67,939.5 5260.67,961.5 5260,983.5C 5257.15,995.347 5249.65,1001.85 5237.5,1003C 5211.83,1003.33 5186.17,1003.67 5160.5,1004C 5148.22,1008.63 5143.05,1017.46 5145,1030.5C 5159.06,1072.64 5162.39,1115.64 5155,1159.5C 5140.68,1228.34 5101.51,1277.17 5037.5,1306C 5002.03,1320.96 4965.03,1329.29 4926.5,1331C 4883.98,1333.64 4841.98,1330.14 4800.5,1320.5C 4793.49,1321.25 4787.66,1324.25 4783,1329.5C 4763.23,1357.13 4760.23,1386.47 4774,1417.5C 4784.68,1432.27 4799.18,1441.11 4817.5,1444C 4826.75,1445.75 4836.08,1446.75 4845.5,1447C 4916.18,1447.05 4986.85,1447.72 5057.5,1449C 5102.25,1451.27 5143.92,1463.6 5182.5,1486C 5221.03,1511.51 5243.53,1547.34 5250,1593.5C 5257.61,1645.38 5245.95,1692.38 5215,1734.5C 5176.49,1783.3 5127.66,1817.8 5068.5,1838C 5017.04,1856.08 4964.04,1866.08 4909.5,1868C 4883.83,1868.67 4858.17,1868.67 4832.5,1868C 4788.57,1866.88 4746.24,1858.21 4705.5,1842C 4672.65,1828.81 4646.82,1807.31 4628,1777.5C 4603.3,1730.77 4604.97,1685.1 4633,1640.5C 4652.96,1616.2 4676.79,1596.7 4704.5,1582C 4713.19,1571.9 4713.69,1561.4 4706,1550.5C 4655.95,1518.4 4638.95,1473.4 4655,1415.5C 4662.65,1393.86 4673.65,1374.19 4688,1356.5C 4700.27,1342.23 4713.27,1328.56 4727,1315.5C 4732.55,1307.4 4732.89,1299.06 4728,1290.5C 4669.23,1247.12 4640.4,1188.62 4641.5,1115C 4644.28,1008.1 4696.95,939.438 4799.5,909C 4825.57,902.254 4851.91,898.087 4878.5,896.5 Z M 4899.5,954.5 C 4946.03,955.203 4978.53,976.87 4997,1019.5C 5008.8,1048.83 5014.3,1079.33 5013.5,1111C 5014.08,1144.36 5008.25,1176.53 4996,1207.5C 4971.75,1260.21 4930.92,1281.71 4873.5,1272C 4850.27,1265.97 4831.77,1253.14 4818,1233.5C 4802.12,1208.87 4792.79,1181.87 4790,1152.5C 4785.44,1115.39 4787.78,1078.72 4797,1042.5C 4805.43,1010.78 4823.26,985.943 4850.5,968C 4865.92,959.687 4882.25,955.187 4899.5,954.5 Z M 4785.5,1579.5 C 4797.18,1579.63 4808.85,1580.13 4820.5,1581C 4883.83,1581.33 4947.17,1581.67 5010.5,1582C 5037.75,1582.06 5062.75,1589.39 5085.5,1604C 5115.94,1632.57 5125.44,1667.07 5114,1707.5C 5103.87,1732.96 5086.7,1752.13 5062.5,1765C 5031.1,1781.18 4997.77,1790.85 4962.5,1794C 4923.45,1798.97 4884.45,1798.64 4845.5,1793C 4818.18,1789.23 4793.51,1779.23 4771.5,1763C 4751.71,1745.26 4740.55,1723.09 4738,1696.5C 4732.89,1651.83 4746.39,1613.99 4778.5,1583C 4780.93,1581.79 4783.26,1580.62 4785.5,1579.5 Z"/></g>
<g><path style="opacity:1" fill="#000000" d="M 6577.5,896.5 C 6610.24,894.55 6641.91,899.383 6672.5,911C 6701.62,923.786 6724.12,943.953 6740,971.5C 6745.82,982.143 6750.82,993.143 6755,1004.5C 6759.26,1009.38 6764.09,1010.21 6769.5,1007C 6802.66,966.836 6842.99,936.169 6890.5,915C 6943.46,894.531 6997.46,891.197 7052.5,905C 7096.96,919.123 7128.46,947.623 7147,990.5C 7162.31,1030.71 7169.98,1072.38 7170,1115.5C 7170.09,1238.17 7170.92,1360.84 7172.5,1483.5C 7196.53,1488.14 7220.53,1492.97 7244.5,1498C 7249.1,1498.71 7252.27,1501.21 7254,1505.5C 7254.67,1519.83 7254.67,1534.17 7254,1548.5C 7253.21,1551.58 7251.38,1553.75 7248.5,1555C 7196.17,1555.17 7143.83,1555.33 7091.5,1555.5C 7038.42,1555.66 6985.42,1555.16 6932.5,1554C 6930.95,1552.79 6929.78,1551.29 6929,1549.5C 6928.33,1534.5 6928.33,1519.5 6929,1504.5C 6929.78,1502.71 6930.95,1501.21 6932.5,1500C 6958.65,1493.67 6984.99,1488.17 7011.5,1483.5C 7013.27,1366.17 7013.77,1248.84 7013,1131.5C 7013.01,1103.53 7008.01,1076.53 6998,1050.5C 6985.18,1027.06 6965.35,1013.89 6938.5,1011C 6898.91,1006.81 6861.91,1014.81 6827.5,1035C 6808.17,1046.92 6790.01,1060.42 6773,1075.5C 6771.45,1077.77 6770.61,1080.27 6770.5,1083C 6771.17,1088.82 6771.67,1094.65 6772,1100.5C 6772.22,1225.84 6773.22,1351.17 6775,1476.5C 6775.73,1480.9 6778.23,1483.73 6782.5,1485C 6803.47,1489.49 6824.47,1493.82 6845.5,1498C 6850.15,1498.73 6853.32,1501.23 6855,1505.5C 6855.67,1519.83 6855.67,1534.17 6855,1548.5C 6854.21,1551.58 6852.38,1553.75 6849.5,1555C 6744.5,1555.67 6639.5,1555.67 6534.5,1555C 6531.24,1553.41 6529.08,1550.91 6528,1547.5C 6527.33,1533.83 6527.33,1520.17 6528,1506.5C 6528.88,1503.9 6530.38,1501.73 6532.5,1500C 6559.32,1493.67 6586.32,1488.17 6613.5,1483.5C 6615.43,1363.84 6615.93,1244.18 6615,1124.5C 6614.22,1100.82 6609.89,1077.82 6602,1055.5C 6591.58,1031.36 6573.41,1016.86 6547.5,1012C 6510.22,1006.39 6474.89,1012.39 6441.5,1030C 6419.44,1042.36 6398.77,1056.69 6379.5,1073C 6377.96,1074.58 6376.79,1076.41 6376,1078.5C 6374.95,1211.84 6375.61,1345.18 6378,1478.5C 6379.27,1482.77 6382.1,1485.27 6386.5,1486C 6409.05,1490.24 6431.38,1495.24 6453.5,1501C 6454.46,1502.42 6455.29,1503.92 6456,1505.5C 6456.97,1520.93 6456.63,1536.26 6455,1551.5C 6453.27,1553.62 6451.1,1555.12 6448.5,1556C 6344.17,1556.67 6239.83,1556.67 6135.5,1556C 6131.5,1555.33 6128.67,1553.17 6127,1549.5C 6126.33,1534.83 6126.33,1520.17 6127,1505.5C 6128.12,1503.38 6129.62,1501.54 6131.5,1500C 6155.75,1494.75 6180.09,1489.75 6204.5,1485C 6208.5,1484.33 6211.33,1482.17 6213,1478.5C 6215.34,1366.85 6216,1255.18 6215,1143.5C 6214.27,1113.16 6213.27,1082.82 6212,1052.5C 6210.58,1046.42 6206.75,1043.25 6200.5,1043C 6174.05,1039.9 6147.71,1036.24 6121.5,1032C 6119.11,1030.05 6117.61,1027.55 6117,1024.5C 6116.33,1012.17 6116.33,999.833 6117,987.5C 6117.47,985.754 6118.14,984.087 6119,982.5C 6122.14,980.014 6125.64,978.181 6129.5,977C 6199.27,950.3 6269.1,923.8 6339,897.5C 6344.59,899.088 6349.76,901.588 6354.5,905C 6357.67,906.833 6360.17,909.333 6362,912.5C 6364.45,938.155 6366.79,963.822 6369,989.5C 6371.55,998.57 6377.05,1001.07 6385.5,997C 6424.77,954.854 6471.77,924.521 6526.5,906C 6543.36,901.303 6560.36,898.137 6577.5,896.5 Z"/></g>
<g><path style="opacity:1" fill="#000000" d="M 7565.5,896.5 C 7618.51,893.802 7668.85,903.969 7716.5,927C 7793.68,971.425 7837.18,1038.26 7847,1127.5C 7849.24,1156.54 7848.91,1185.54 7846,1214.5C 7844.8,1225.41 7839.3,1233.24 7829.5,1238C 7704.54,1239.33 7579.54,1239.99 7454.5,1240C 7440.67,1243.17 7433.33,1251.83 7432.5,1266C 7436.49,1319.35 7455.32,1366.51 7489,1407.5C 7530.23,1449.18 7580.39,1469.51 7639.5,1468.5C 7703.16,1469.81 7757.82,1448.64 7803.5,1405C 7819.01,1394.8 7832.51,1396.96 7844,1411.5C 7848.93,1421.36 7848.59,1431.03 7843,1440.5C 7817.83,1480.33 7785.33,1512.83 7745.5,1538C 7710.08,1557.92 7672.08,1569.58 7631.5,1573C 7562.59,1580.43 7496.25,1570.76 7432.5,1544C 7346.31,1501.77 7292.81,1433.61 7272,1339.5C 7259.05,1274.09 7259.39,1208.76 7273,1143.5C 7294.91,1051.08 7346.74,981.25 7428.5,934C 7471.5,911.335 7517.17,898.835 7565.5,896.5 Z M 7567.5,963.5 C 7600.2,960.172 7629.54,968.339 7655.5,988C 7679.91,1012.67 7693.08,1042.51 7695,1077.5C 7695.67,1090.5 7695.67,1103.5 7695,1116.5C 7690.68,1154.81 7669.18,1174.31 7630.5,1175C 7571.5,1175.67 7512.5,1175.67 7453.5,1175C 7441.28,1171.11 7434.61,1162.78 7433.5,1150C 7436.99,1109.87 7448.16,1072.03 7467,1036.5C 7489.22,996.639 7522.72,972.306 7567.5,963.5 Z"/></g>
<g><path style="opacity:1" fill="#000000" d="M 3701.5,897.5 C 3704.61,897.351 3707.61,897.851 3710.5,899C 3714.83,901.833 3719.17,904.667 3723.5,907.5C 3725.3,909.131 3726.46,911.131 3727,913.5C 3726.3,966.829 3725.3,1020.16 3724,1073.5C 3722.94,1208.51 3723.6,1343.51 3726,1478.5C 3726.79,1481.58 3728.62,1483.75 3731.5,1485C 3753.81,1489.79 3776.14,1494.46 3798.5,1499C 3802.8,1500.77 3805.3,1503.94 3806,1508.5C 3806.93,1522.56 3806.59,1536.56 3805,1550.5C 3803.04,1553.14 3800.54,1554.97 3797.5,1556C 3692.83,1556.67 3588.17,1556.67 3483.5,1556C 3479.67,1554.83 3477.17,1552.33 3476,1548.5C 3475.33,1534.5 3475.33,1520.5 3476,1506.5C 3477.17,1502.67 3479.67,1500.17 3483.5,1499C 3508.38,1494.43 3533.04,1489.09 3557.5,1483C 3559.05,1481.79 3560.22,1480.29 3561,1478.5C 3563.8,1348.17 3564.13,1217.84 3562,1087.5C 3561.52,1075.49 3560.86,1063.49 3560,1051.5C 3558.15,1045.98 3554.32,1043.15 3548.5,1043C 3523.12,1039.99 3497.79,1036.66 3472.5,1033C 3470.41,1032.21 3468.58,1031.04 3467,1029.5C 3465.37,1014.93 3465.03,1000.26 3466,985.5C 3467.12,983.376 3468.62,981.543 3470.5,980C 3547.64,952.568 3624.64,925.068 3701.5,897.5 Z"/></g>
<g><path style="opacity:1" fill="#000000" d="M 5974.5,897.5 C 5977.61,897.351 5980.61,897.851 5983.5,899C 5987.83,901.833 5992.17,904.667 5996.5,907.5C 5998.3,909.131 5999.46,911.131 6000,913.5C 5995.77,1101.82 5995.43,1290.15 5999,1478.5C 5999.79,1481.58 6001.62,1483.75 6004.5,1485C 6026.81,1489.79 6049.14,1494.46 6071.5,1499C 6075.8,1500.77 6078.3,1503.94 6079,1508.5C 6079.67,1521.17 6079.67,1533.83 6079,1546.5C 6077.9,1551.26 6075.07,1554.43 6070.5,1556C 5965.83,1556.67 5861.17,1556.67 5756.5,1556C 5752.67,1554.83 5750.17,1552.33 5749,1548.5C 5748.33,1534.5 5748.33,1520.5 5749,1506.5C 5750.17,1502.67 5752.67,1500.17 5756.5,1499C 5781.38,1494.43 5806.04,1489.09 5830.5,1483C 5832.49,1481.68 5833.65,1479.85 5834,1477.5C 5836.8,1347.84 5837.13,1218.17 5835,1088.5C 5834.54,1076.16 5833.88,1063.82 5833,1051.5C 5832.12,1048.9 5830.62,1046.73 5828.5,1045C 5800.61,1040.51 5772.61,1036.51 5744.5,1033C 5742.91,1031.95 5741.41,1030.79 5740,1029.5C 5738.37,1014.93 5738.03,1000.26 5739,985.5C 5740.12,983.376 5741.62,981.543 5743.5,980C 5820.64,952.568 5897.64,925.068 5974.5,897.5 Z"/></g>
</svg>
