<svg width="215" height="242" viewBox="0 0 215 242" fill="none" xmlns="http://www.w3.org/2000/svg">
<g clip-path="url(#clip0_163_351)">
<path d="M211.57 179.741V62.263L107.508 3.52393L3.44629 62.263V179.741L107.508 238.502L211.57 179.741Z" fill="url(#paint0_radial_163_351)"></path>
<path d="M106.288 0.320162L1.22246 59.6142C0.480252 60.0624 0 60.8522 0 61.7059V180.294C0 181.148 0.480252 181.959 1.22246 182.386L106.267 241.68C107.031 242.107 107.969 242.107 108.733 241.68L213.778 182.386C214.542 181.959 215 181.169 215 180.294V61.7059C215 60.8522 214.52 60.0411 213.778 59.6142L108.733 0.320162C107.969 -0.106721 107.031 -0.106721 106.288 0.320162ZM161.081 85.4406L120.98 62.6878C119.343 61.7486 119.343 59.4435 120.98 58.5257L158.265 37.4803C159.029 37.0534 159.968 37.0534 160.732 37.4803L200.964 60.1905C202.601 61.1083 202.601 63.4348 200.964 64.3526L163.548 85.462C162.784 85.8889 161.845 85.8889 161.081 85.4406ZM10.5874 70.1369L102.818 122.195C103.582 122.622 104.04 123.412 104.04 124.287V168.405C104.04 170.241 102.01 171.415 100.373 170.497L8.14245 119.698C7.37841 119.271 6.89816 118.46 6.89816 117.606V72.2286C6.89816 70.3717 8.95015 69.2191 10.5874 70.1369ZM112.182 179.59L155.165 155.321C156.802 154.404 158.854 155.556 158.854 157.413V204.221C158.854 205.075 158.374 205.886 157.632 206.313L114.649 230.581C113.012 231.499 110.96 230.346 110.96 228.489V181.681C110.96 180.806 111.418 180.017 112.182 179.59ZM157.632 146.143L114.649 170.412C113.012 171.329 110.96 170.177 110.96 168.32V124.308C110.96 123.455 111.44 122.643 112.182 122.217L155.165 97.9697C156.802 97.0519 158.854 98.2044 158.854 100.061V144.073C158.854 144.927 158.396 145.717 157.632 146.143ZM106.288 116.368L66.1001 93.6795C64.4629 92.7617 64.4629 90.4352 66.1001 89.5174L109.192 65.185C109.956 64.7582 110.895 64.7582 111.659 65.185L151.76 87.9379C153.397 88.877 153.397 91.1822 151.76 92.1L108.755 116.347C107.969 116.795 107.031 116.795 106.288 116.368ZM148.922 34.9617L56.7352 86.9988C55.9712 87.4256 55.0325 87.4256 54.2685 86.9988L13.3379 63.9044C12.0281 63.1573 12.0281 61.3004 13.3379 60.5747L106.288 8.11078C107.052 7.68389 107.991 7.68389 108.755 8.11078L148.944 30.7996C150.559 31.7174 150.559 34.0439 148.922 34.9617ZM10.5655 128.769L102.796 179.568C103.56 179.995 104.04 180.806 104.04 181.66V228.468C104.04 230.325 101.988 231.477 100.351 230.56L8.12062 178.501C7.35659 178.074 6.89816 177.285 6.89816 176.409V130.882C6.89816 129.025 8.92832 127.873 10.5655 128.769ZM165.752 197.54V93.3807C165.752 92.5269 166.233 91.7158 166.975 91.2889L204.413 70.1796C206.05 69.2618 208.102 70.4144 208.102 72.2713V176.409C208.102 177.263 207.622 178.074 206.879 178.501L169.442 199.632C167.804 200.55 165.752 199.397 165.752 197.54Z" fill="white"></path>
</g>
<defs>
<radialGradient id="paint0_radial_163_351" cx="0" cy="0" r="1" gradientUnits="userSpaceOnUse" gradientTransform="translate(107.509 121.005) scale(112.397 109.898)">
<stop stop-color="#000099"></stop>
<stop offset="0.15" stop-color="#0000BB"></stop>
<stop offset="0.29" stop-color="#0000DD"></stop>
<stop offset="0.43" stop-color="#0000FF"></stop>
<stop offset="0.57" stop-color="#1A3BF2"></stop>
<stop offset="0.72" stop-color="#3476E6"></stop>
<stop offset="0.86" stop-color="#4DB0D9"></stop>
<stop offset="1" stop-color="#67EBCC"></stop>
</radialGradient>
<clipPath id="clip0_163_351">
<rect width="215" height="242" fill="white"></rect>
</clipPath>
</defs>
</svg>