<?xml version="1.0" encoding="utf-8"?>

<svg version="1.1" id="Ebene_1" xmlns="http://www.w3.org/2000/svg" xmlns:xlink="http://www.w3.org/1999/xlink" x="0px" y="0px" viewBox="0 0 189 33" style="enable-background:new 0 0 189 33;" xml:space="preserve">

<path class="st0" d="M0,15.7V9.2c0-0.6,0.3-1.2,0.9-1.5l11.9-7c0.3-0.2,0.8,0.1,0.8,0.5v14.2c0,0.5-0.4,0.9-0.9,0.9H0.4&#xA;&#x9;C0.2,16.1,0,16,0,15.7z"></path>
<path class="st0" d="M14.4,32V17.8c0-0.5,0.4-0.9,0.9-0.9h12.3c0.2,0,0.4,0.2,0.4,0.4v6.6c0,0.6-0.3,1.2-0.9,1.5l-11.9,7&#xA;&#x9;C14.8,32.6,14.4,32.4,14.4,32z"></path>
<path class="st1" d="M162.6,27.5l0.1,0.3c-1.1,0.5-2.3,0.7-3.6,0.7c-1.7,0-3.2-0.4-4.5-1.1c-1.3-0.7-2.3-1.7-3.1-3&#xA;&#x9;c-0.7-1.3-1.1-2.8-1.1-4.4c0-1.7,0.4-3.2,1.1-4.5l0,0c0.7-1.3,1.8-2.4,3.1-3.1c1.3-0.8,2.9-1.1,4.6-1.1c1.6,0,3.1,0.4,4.4,1.1&#xA;&#x9;c1.3,0.7,2.3,1.7,3,2.9c0.7,1.2,1.1,2.6,1.1,4.1c0,0.2,0,0.5,0,0.7c0,0.3,0,0.5,0,0.8l0,0.3h-12.3c0.1,1,0.5,1.8,1.2,2.4&#xA;&#x9;c0.7,0.7,1.6,1,2.7,1c0.8,0,1.5-0.2,2-0.5c0.5-0.4,0.9-0.8,1.2-1.4l0.1-0.2h4.8l-0.1,0.4c-0.3,1-0.9,2-1.6,2.9&#xA;&#x9;c-0.7,0.8-1.6,1.5-2.7,2l0,0L162.6,27.5z M156.6,16c0.7-0.5,1.6-0.8,2.5-0.8c1,0,1.8,0.3,2.5,0.9c0.6,0.5,0.9,1.2,1,2h-7.4&#xA;&#x9;C155.5,17.1,156,16.4,156.6,16L156.6,16z"></path>
<path class="st0" d="M77.1,4.5h-4.8v23.6h4.8v-7.4l6.1,7.4h6l-8-8.9l6.9-7.5h-5.8l-5.3,5.9V4.5z"></path>
<path class="st0" d="M130.1,4.5c-0.8,0-1.5,0.2-2.1,0.7c-0.5,0.5-0.8,1.1-0.8,1.9c0,0.8,0.3,1.4,0.8,1.9l0,0&#xA;&#x9;c0.6,0.5,1.3,0.7,2.1,0.7c0.8,0,1.5-0.2,2.1-0.8c0.6-0.5,0.8-1.1,0.8-1.9c0-0.8-0.3-1.4-0.8-1.9C131.6,4.7,130.9,4.5,130.1,4.5z"></path>
<path class="st0" d="M54,5.1H35.9V9h6.7v19.1h4.8V9H54V5.1z"></path>
<path class="st1" d="M61.1,11.3c-1.6,0-3.1,0.4-4.4,1.1l0,0c-1.3,0.7-2.3,1.7-3.1,3c-0.8,1.3-1.2,2.8-1.2,4.5c0,1.7,0.4,3.2,1.1,4.5&#xA;&#x9;l0,0c0.8,1.3,1.8,2.3,3.1,3l0,0c1.3,0.7,2.8,1.1,4.4,1.1c1.6,0,3.1-0.4,4.4-1.1c1.3-0.7,2.3-1.7,3.1-3c0.8-1.3,1.2-2.8,1.2-4.5&#xA;&#x9;c0-1.7-0.4-3.2-1.2-4.5c-0.7-1.3-1.8-2.3-3.1-3.1C64.2,11.6,62.7,11.3,61.1,11.3z M57.4,19.9c0-1.5,0.4-2.6,1.1-3.3&#xA;&#x9;c0.8-0.8,1.6-1.1,2.7-1.1c1,0,1.8,0.4,2.6,1.1l0,0c0.7,0.7,1.1,1.8,1.1,3.3c0,1.5-0.4,2.6-1.1,3.4c-0.8,0.7-1.6,1.1-2.6,1.1&#xA;&#x9;c-1,0-1.9-0.4-2.6-1.1C57.8,22.5,57.4,21.4,57.4,19.9z"></path>
<path class="st1" d="M97.3,11.3c-1.7,0-3.3,0.4-4.6,1.1c-1.3,0.7-2.3,1.8-3.1,3.1l0,0c-0.7,1.3-1.1,2.8-1.1,4.5&#xA;&#x9;c0,1.7,0.4,3.1,1.1,4.4c0.7,1.3,1.8,2.3,3.1,3c1.3,0.7,2.8,1.1,4.5,1.1c1.3,0,2.6-0.2,3.6-0.7c1.1-0.5,2-1.2,2.7-2&#xA;&#x9;c0.7-0.9,1.3-1.8,1.6-2.9l0.1-0.4h-4.8l-0.1,0.2c-0.3,0.5-0.7,1-1.2,1.4c-0.5,0.3-1.2,0.5-2,0.5c-1.1,0-2-0.3-2.7-1&#xA;&#x9;c-0.7-0.6-1.1-1.4-1.2-2.4h12.3l0-0.3c0-0.3,0-0.5,0-0.8c0-0.3,0-0.5,0-0.7c0-1.5-0.4-2.9-1.1-4.1c-0.7-1.2-1.7-2.2-3-2.9&#xA;&#x9;C100.4,11.6,99,11.3,97.3,11.3z M94.8,16c0.7-0.5,1.6-0.8,2.5-0.8c1,0,1.8,0.3,2.5,0.9c0.6,0.5,0.9,1.2,1,2h-7.4&#xA;&#x9;C93.7,17.1,94.1,16.4,94.8,16L94.8,16z"></path>
<path class="st0" d="M118,11.3c-1.3,0-2.5,0.3-3.5,0.9l0,0c-0.7,0.4-1.3,1-1.8,1.6l-0.3-2.1h-4.3v16.5h4.8v-8.5c0-1.4,0.4-2.5,1-3.2&#xA;&#x9;c0.7-0.7,1.6-1.1,2.7-1.1c1.1,0,1.9,0.3,2.4,1c0.5,0.7,0.8,1.6,0.8,3v8.9h4.8v-9.2c0-2.4-0.6-4.3-1.7-5.6&#xA;&#x9;C121.7,11.9,120.1,11.3,118,11.3z"></path>
<path class="st0" d="M132.5,11.7h-4.8v16.5h4.8V11.7z"></path>
<path class="st0" d="M148.4,11.7h-13.5v4h7.8l-7.9,8.8v3.7h13.8v-4h-8.2l8-8.8V11.7z"></path>
<path class="st0" d="M177.1,11.5c-0.6,0-1.1,0.2-1.6,0.5c-0.4,0.4-0.6,0.8-0.6,1.4c0,0.6,0.2,1,0.6,1.4l0,0c0.4,0.4,0.9,0.5,1.6,0.5&#xA;&#x9;c0.6,0,1.1-0.2,1.5-0.5c0.4-0.4,0.6-0.8,0.6-1.4c0-0.6-0.2-1-0.6-1.4C178.3,11.7,177.7,11.5,177.1,11.5z"></path>
<path class="st0" d="M185.9,13.6h-3.2l-0.4,3h-2v3h2v4.6c0,1.5,0.4,2.6,1.2,3.3c0.8,0.6,1.8,0.9,3.1,0.9h2.3v-3h-1.8&#xA;&#x9;c-0.6,0-0.9-0.1-1.1-0.2c-0.1-0.1-0.2-0.4-0.2-0.9v-4.6h3.1v-3h-3.1V13.6z"></path>
<path class="st0" d="M178.9,16.6h-3.6v11.8h3.6V16.6z"></path>
<path class="st0" d="M170.3,24.5c-0.6,0-1.1,0.2-1.6,0.6l0,0c-0.4,0.4-0.6,0.9-0.6,1.4c0,0.5,0.2,1,0.6,1.4l0,0&#xA;&#x9;c0.4,0.4,0.9,0.6,1.6,0.6c0.6,0,1.1-0.2,1.5-0.6c0.4-0.4,0.6-0.9,0.6-1.4c0-0.6-0.2-1-0.6-1.4C171.5,24.7,170.9,24.5,170.3,24.5z"></path>
</svg>